<svg width="513" height="511" viewBox="0 0 513 511" fill="none" xmlns="http://www.w3.org/2000/svg" fill="#765959">
<path d="M10.5 42.5C4.97716 42.5 0.500005 46.9772 0.5 52.5C0.499995 58.0228 4.97714 62.5 10.5 62.5L10.5 42.5ZM73.6819 52.5001L73.6819 42.5001L73.6819 52.5001ZM133 330L123.206 332.018L123.255 332.258L123.316 332.494L133 330ZM88.9999 116.5L79.1711 118.343L79.1876 118.431L79.2057 118.518L88.9999 116.5ZM77.6134 55.763L87.4422 53.9204L87.4422 53.9204L77.6134 55.763ZM247.5 126.5C253.023 126.5 257.5 122.023 257.5 116.5C257.5 110.977 253.023 106.5 247.5 106.5V126.5ZM459.263 286.862L457.952 276.948L457.952 276.948L459.263 286.862ZM462.632 283.813L452.898 281.522L452.898 281.522L462.632 283.813ZM481.734 246.29C482.999 240.914 479.666 235.531 474.29 234.266C468.914 233.001 463.531 236.334 462.266 241.71L481.734 246.29ZM437.61 382.499C443.132 382.439 447.56 377.913 447.499 372.39C447.439 366.868 442.913 362.44 437.39 362.501L437.61 382.499ZM10.5 62.5L73.6819 62.5001L73.6819 42.5001L10.5 42.5L10.5 62.5ZM142.794 327.981L98.7941 114.482L79.2057 118.518L123.206 332.018L142.794 327.981ZM98.8287 114.657L87.4422 53.9204L67.7847 57.6056L79.1711 118.343L98.8287 114.657ZM88.9999 126.5H247.5V106.5H88.9999V126.5ZM134.311 339.914L460.574 296.776L457.952 276.948L131.689 320.086L134.311 339.914ZM472.366 286.103L481.734 246.29L462.266 241.71L452.898 281.522L472.366 286.103ZM123.316 332.494C131.849 365.627 164.526 379.717 187.318 382.43L189.682 362.57C170.474 360.283 148.205 348.942 142.684 327.506L123.316 332.494ZM187.318 382.43C193.292 383.141 212.253 383.439 236.217 383.555C260.596 383.672 291.104 383.594 320.927 383.437C350.757 383.281 379.926 383.047 401.637 382.851C412.493 382.753 421.485 382.666 427.763 382.602C430.902 382.57 433.363 382.545 435.04 382.527C435.878 382.518 436.52 382.511 436.953 382.507C437.169 382.504 437.333 382.502 437.443 382.501C437.498 382.501 437.54 382.5 437.568 382.5C437.581 382.5 437.592 382.5 437.599 382.5C437.602 382.5 437.605 382.499 437.607 382.499C437.609 382.499 437.61 382.499 437.5 372.5C437.39 362.501 437.389 362.501 437.388 362.501C437.386 362.501 437.383 362.501 437.38 362.501C437.373 362.501 437.363 362.501 437.349 362.501C437.322 362.501 437.281 362.502 437.226 362.502C437.117 362.504 436.953 362.505 436.737 362.508C436.306 362.512 435.665 362.519 434.829 362.528C433.155 362.546 430.697 362.571 427.561 362.603C421.289 362.667 412.304 362.754 401.457 362.852C379.761 363.047 350.618 363.282 320.822 363.438C291.021 363.594 260.591 363.672 236.314 363.555C211.622 363.436 194.208 363.109 189.682 362.57L187.318 382.43ZM460.574 296.776C466.34 296.013 471.034 291.765 472.366 286.103L452.898 281.522C453.469 279.096 455.481 277.275 457.952 276.948L460.574 296.776ZM73.6819 62.5001C70.7946 62.5001 68.3167 60.4435 67.7847 57.6056L87.4422 53.9204C86.2008 47.2986 80.4191 42.5001 73.6819 42.5001L73.6819 62.5001ZM493 116.5C493 169.795 449.795 213 396.5 213V233C460.841 233 513 180.841 513 116.5H493ZM396.5 213C343.204 213 300 169.795 300 116.5H280C280 180.841 332.159 233 396.5 233V213ZM300 116.5C300 63.2045 343.204 20 396.5 20V0C332.159 0 280 52.1588 280 116.5H300ZM396.5 20C449.795 20 493 63.2045 493 116.5H513C513 52.1588 460.841 0 396.5 0V20ZM217 457.5C217 476.002 202.001 491 183.5 491V511C213.047 511 237 487.047 237 457.5H217ZM183.5 491C164.998 491 150 476.002 150 457.5H130C130 487.047 153.953 511 183.5 511V491ZM150 457.5C150 438.998 164.998 424 183.5 424V404C153.953 404 130 427.953 130 457.5H150ZM183.5 424C202.001 424 217 438.998 217 457.5H237C237 427.953 213.047 404 183.5 404V424ZM430 457.5C430 476.002 415.001 491 396.5 491V511C426.047 511 450 487.047 450 457.5H430ZM396.5 491C377.998 491 363 476.002 363 457.5H343C343 487.047 366.953 511 396.5 511V491ZM363 457.5C363 438.998 377.998 424 396.5 424V404C366.953 404 343 427.953 343 457.5H363ZM396.5 424C415.001 424 430 438.998 430 457.5H450C450 427.953 426.047 404 396.5 404V424Z"/>
</svg>
