<svg width="418" height="418" viewBox="0 0 418 418" fill="none" xmlns="http://www.w3.org/2000/svg">
<path fill-rule="evenodd" clip-rule="evenodd" d="M209 418C324.428 418 418 324.428 418 209C418 93.5725 324.428 0 209 0C93.5725 0 0 93.5725 0 209C0 324.428 93.5725 418 209 418ZM276.019 154.744L221.765 209L276.019 263.255C279.549 266.784 279.549 272.49 276.019 276.019C274.258 277.779 271.947 278.664 269.637 278.664C267.326 278.664 265.015 277.779 263.254 276.019L208.999 221.764L154.746 276.019C152.985 277.779 150.674 278.664 148.363 278.664C146.053 278.664 143.74 277.779 141.981 276.019C138.451 272.49 138.451 266.784 141.981 263.255L196.235 209L141.981 154.744C138.451 151.215 138.451 145.509 141.981 141.98C145.51 138.451 151.215 138.451 154.746 141.98L208.999 196.235L263.254 141.98C266.784 138.451 272.49 138.451 276.019 141.98C279.549 145.509 279.549 151.215 276.019 154.744Z" fill="#765858"/>
</svg>
