<svg width="419" height="419" viewBox="0 0 419 419" fill="none" xmlns="http://www.w3.org/2000/svg">
<path fill-rule="evenodd" clip-rule="evenodd" d="M209.5 419C325.204 419 419 325.204 419 209.5C419 93.7963 325.204 0 209.5 0C93.7963 0 0 93.7963 0 209.5C0 325.204 93.7963 419 209.5 419ZM256 149.389V121.278C250.25 120.426 242.157 120 231.722 120C219.441 120 209.61 123.638 202.227 130.914C194.844 138.191 191.153 148.431 191.153 161.634V184.847H164V216.366H191.153V297.185H223.736V216.366H250.782L254.935 184.847H223.736V164.722C223.736 159.611 224.801 155.778 226.931 153.222C229.06 150.667 233.177 149.389 239.282 149.389H256Z" fill="#71C4B6"/>
</svg>
