<svg width="419" height="419" viewBox="0 0 419 419" fill="none" xmlns="http://www.w3.org/2000/svg">
<path fill-rule="evenodd" clip-rule="evenodd" d="M209.5 419C325.204 419 419 325.204 419 209.5C419 93.7963 325.204 0 209.5 0C93.7963 0 0 93.7963 0 209.5C0 325.204 93.7963 419 209.5 419ZM161.318 208.979C161.318 182.021 183.063 160.276 210.021 160.276C236.979 160.276 258.724 182.021 258.724 208.979C258.724 235.937 236.979 257.682 210.021 257.682C183.063 257.682 161.318 235.937 161.318 208.979ZM178.358 208.979C178.358 226.442 192.6 240.642 210.021 240.642C227.442 240.642 241.684 226.442 241.684 208.979C241.684 191.515 227.485 177.316 210.021 177.316C192.558 177.316 178.358 191.515 178.358 208.979ZM260.716 169.644C266.989 169.644 272.076 164.6 272.076 158.284C272.076 152.011 266.989 146.924 260.716 146.924C254.443 146.924 249.356 152.011 249.356 158.284C249.356 164.557 254.4 169.644 260.716 169.644ZM288.988 130.012C300.136 141.117 303.612 154.596 304.332 169.813C305.223 185.496 305.223 232.461 304.332 248.144C303.569 263.361 300.094 276.84 288.988 287.946C277.883 299.094 264.404 302.569 249.187 303.29C233.504 304.18 186.496 304.18 170.813 303.29C155.596 302.527 142.16 299.051 131.012 287.946C119.864 276.84 116.388 263.361 115.668 248.144C114.777 232.461 114.777 185.454 115.668 169.771C116.431 154.554 119.864 141.075 131.012 129.969C142.16 118.864 155.639 115.388 170.813 114.668C186.496 113.777 233.504 113.777 249.187 114.668C264.404 115.431 277.883 118.906 288.988 130.012ZM266.014 283.029C274.365 279.68 280.765 273.28 284.071 264.972C288.325 254.283 288.088 230.903 287.935 215.747C287.909 213.233 287.886 210.945 287.886 208.979C287.886 207.012 287.909 204.725 287.935 202.212C288.088 187.064 288.325 163.71 284.071 152.986C280.723 144.635 274.322 138.235 266.014 134.929C255.292 130.698 231.798 130.923 216.646 131.069C214.188 131.092 211.95 131.114 210.021 131.114C208.055 131.114 205.767 131.091 203.254 131.065C188.106 130.912 164.753 130.675 154.028 134.929C145.678 138.277 139.277 144.678 135.971 152.986C131.74 163.708 131.966 187.202 132.111 202.354C132.135 204.812 132.156 207.05 132.156 208.979C132.156 210.945 132.133 213.233 132.108 215.746C131.954 230.894 131.717 254.247 135.971 264.972C139.32 273.322 145.72 279.723 154.028 283.029C164.75 287.26 188.244 287.034 203.396 286.889C205.854 286.865 208.092 286.844 210.021 286.844C211.988 286.844 214.275 286.867 216.788 286.892C231.936 287.046 255.29 287.283 266.014 283.029Z" fill="white"/>
</svg>
