<svg width="419" height="419" viewBox="0 0 419 419" fill="none" xmlns="http://www.w3.org/2000/svg">
<path fill-rule="evenodd" clip-rule="evenodd" d="M209.5 419C325.204 419 419 325.204 419 209.5C419 93.7963 325.204 0 209.5 0C93.7963 0 0 93.7963 0 209.5C0 325.204 93.7963 419 209.5 419ZM142 187.004C142 155.183 166.219 126 211.759 126C248.409 126 276.886 150.894 277 184.169C277 218.877 254.007 246.845 222.186 246.845C211.489 246.845 201.446 241.579 197.967 235.296C197.967 235.296 192.681 254.54 191.393 259.286C187.852 272.31 175.223 290.328 174.195 291.678C173.551 292.52 172.398 292.198 172.201 291.17C171.879 289.311 168.15 267.699 171.432 254.353C173.374 246.471 183.822 204.264 183.822 204.264C183.822 204.264 180.665 198.241 180.665 189.32C180.665 175.279 189.233 164.821 199.795 164.821C208.747 164.821 213.13 171.239 213.13 178.997C213.13 184.484 210.794 191.68 208.33 199.271C206.91 203.647 205.447 208.155 204.364 212.542C201.913 222.616 209.64 230.758 220.015 230.758C238.761 230.758 253.186 211.898 253.186 184.636C253.186 160.511 235.022 143.645 209.059 143.645C179.034 143.645 161.39 165.195 161.39 187.388C161.39 196.05 164.869 205.282 169.251 210.35C170.082 211.316 170.217 212.209 169.958 213.237C169.621 214.521 169.142 216.379 168.662 218.238C167.943 221.026 167.224 223.814 166.987 224.661C166.541 226.52 165.45 226.905 163.446 226.001C150.246 220.165 142 201.762 142 187.004Z" fill="#4D8786"/>
</svg>
