<svg width="686" height="455" viewBox="0 0 686 455" fill="none" xmlns="http://www.w3.org/2000/svg">
<g clip-path="url(#clip0)">
<path d="M26.2497 309.989H46.3399V338.851C43.3217 344.699 40.0205 350.075 36.4363 354.979C32.8522 359.695 29.1737 364.223 25.4009 368.562C24.8349 369.127 24.552 369.788 24.552 370.542C24.552 372.051 24.9293 372.995 25.6838 373.372C26.0611 373.749 26.5327 374.032 27.0986 374.221C27.6645 374.221 28.0418 374.221 28.2305 374.221C29.1737 374.221 30.0226 373.843 30.7771 373.089C36.2477 366.675 41.4353 359.79 46.3399 352.433V390.067C46.3399 393.651 47.0945 396.763 48.6036 399.404C50.1127 401.857 51.9991 403.932 54.2628 405.629C56.5265 407.327 58.9788 408.648 61.6198 409.591C64.4494 410.345 67.0904 410.723 69.5427 410.723C74.636 410.723 79.069 409.685 82.8418 407.61C86.6146 405.535 90.1045 402.8 93.3114 399.404C96.7069 396.009 99.8195 392.047 102.649 387.52C105.479 382.804 108.403 377.899 111.421 372.806C111.421 372.429 111.515 372.051 111.704 371.674C111.892 371.297 111.987 370.92 111.987 370.542C111.987 369.599 111.327 368.656 110.006 367.713L110.289 368.279C109.723 367.713 109.063 367.43 108.308 367.43C107.742 367.43 107.082 367.524 106.328 367.713C105.762 367.901 105.29 368.467 104.913 369.41C99.0649 379.974 93.5943 388.369 88.501 394.594C83.4078 400.819 77.0883 403.932 69.5427 403.932C65.7699 403.932 62.0914 402.705 58.5072 400.253C55.1117 397.801 53.4139 394.405 53.4139 390.067V309.989H78.8804C79.635 309.989 80.3895 309.706 81.1441 309.14C81.8986 308.574 82.2759 307.819 82.2759 306.876C82.2759 305.933 81.8986 305.084 81.1441 304.33C80.3895 303.575 79.635 303.198 78.8804 303.198H53.4139V247.454C53.4139 246.511 53.0367 245.662 52.2821 244.908C51.7162 244.153 50.9616 243.776 50.0184 243.776C49.0752 243.776 48.2263 244.153 47.4718 244.908C46.7172 245.662 46.3399 246.511 46.3399 247.454V303.198H26.2497C25.3065 303.198 24.4577 303.575 23.7031 304.33C22.9485 305.084 22.5713 305.933 22.5713 306.876C22.5713 308.951 23.7974 309.989 26.2497 309.989ZM221.813 411.006C226.906 411.006 231.622 409.874 235.961 407.61C240.488 405.158 244.544 402.045 248.128 398.272C251.901 394.5 255.202 390.444 258.032 386.105C261.05 381.578 263.691 377.145 265.955 372.806V371.391C265.955 370.637 265.295 369.41 263.974 367.713H262.559C261.993 367.713 261.333 367.901 260.579 368.279C260.013 368.467 259.635 369.033 259.447 369.976C257.183 374.126 254.636 378.277 251.807 382.427C249.166 386.388 246.242 390.067 243.035 393.462C240.017 396.669 236.716 399.31 233.131 401.385C229.547 403.271 225.774 404.215 221.813 404.215C218.606 404.215 215.588 403.177 212.758 401.102C209.929 398.838 208.514 395.82 208.514 392.047V350.452C208.514 348 208.042 345.264 207.099 342.246C206.156 339.228 204.835 336.398 203.138 333.757C201.44 331.116 199.27 328.947 196.63 327.249C194.177 325.552 191.348 324.703 188.141 324.703C184.368 324.703 180.784 325.457 177.388 326.966C174.181 328.475 171.163 330.551 168.333 333.191C165.504 335.644 162.769 338.473 160.128 341.68C157.675 344.887 155.317 348.188 153.054 351.584L150.79 355.262V335.172C150.79 334.418 150.696 333.569 150.507 332.626C150.507 331.682 150.035 330.739 149.092 329.796C147.394 327.91 144.659 326.966 140.886 326.966C137.491 326.966 134.19 328.758 130.983 332.343C127.964 335.738 125.135 339.511 122.494 343.661L117.401 350.735C114.76 354.885 112.402 358.658 110.327 362.053C108.252 365.449 106.742 367.807 105.799 369.127C105.422 369.505 105.233 369.976 105.233 370.542C105.045 370.92 104.95 371.203 104.95 371.391C104.95 372.146 105.045 372.712 105.233 373.089C105.233 373.466 105.705 373.843 106.648 374.221C107.214 374.598 107.78 374.787 108.346 374.787C109.289 374.787 110.232 374.315 111.175 373.372C114.194 369.033 116.552 365.732 118.249 363.468C119.947 361.016 121.173 359.224 121.928 358.092C122.683 356.96 123.154 356.3 123.343 356.111C123.531 355.734 123.531 355.545 123.343 355.545C123.343 355.545 123.343 355.451 123.343 355.262C123.531 355.074 123.909 354.508 124.475 353.565L128.153 347.622H127.587C130.794 343.284 133.529 339.794 135.793 337.153C138.057 334.889 139.754 333.757 140.886 333.757C142.207 333.757 142.961 333.757 143.15 333.757C143.339 333.757 143.527 333.946 143.716 334.323V364.6V364.883V407.327C143.716 409.779 144.942 411.006 147.394 411.006C149.658 411.006 150.79 409.779 150.79 407.327V366.581C151.733 365.449 152.771 364.034 153.902 362.336C155.034 360.639 156.26 358.941 157.581 357.243C159.656 354.414 161.825 351.49 164.089 348.471C166.353 345.453 168.711 342.718 171.163 340.266C173.804 337.813 176.445 335.832 179.086 334.323C181.916 332.626 184.934 331.777 188.141 331.777C190.027 331.777 191.819 332.343 193.517 333.474C195.215 334.606 196.63 336.115 197.761 338.002C199.082 339.7 200.025 341.68 200.591 343.944C201.346 346.208 201.723 348.377 201.723 350.452V392.047C201.723 395.254 202.289 398.084 203.421 400.536C204.741 402.8 206.344 404.686 208.231 406.195C210.306 407.704 212.475 408.931 214.739 409.874C217.191 410.628 219.549 411.006 221.813 411.006ZM359.882 388.935C365.73 388.935 371.389 387.709 376.86 385.256C382.33 382.804 387.329 378.654 391.857 372.806C392.234 372.429 392.423 371.957 392.423 371.391C392.611 370.825 392.706 370.448 392.706 370.259C392.706 369.693 392.611 369.222 392.423 368.845C392.423 368.279 391.951 367.807 391.008 367.43L391.291 367.713C390.725 367.335 390.065 367.147 389.31 367.147C388.178 367.147 387.235 367.524 386.481 368.279C383.085 373.183 378.935 376.673 374.03 378.748C369.314 380.823 364.41 381.861 359.316 381.861C357.241 381.861 355.166 381.766 353.091 381.578C351.205 381.389 349.13 381.012 346.866 380.446C347.998 376.862 348.564 373.089 348.564 369.127C348.564 363.091 347.338 357.526 344.885 352.433C342.622 347.151 339.415 342.624 335.265 338.851C331.303 334.889 326.587 331.777 321.117 329.513C315.646 327.249 309.798 326.117 303.573 326.117C297.348 326.117 291.5 327.249 286.03 329.513C280.748 331.777 276.032 334.889 271.882 338.851C267.92 342.624 264.808 347.151 262.544 352.433C260.091 357.526 258.865 363.091 258.865 369.127C258.865 375.164 260.091 380.729 262.544 385.822C264.808 390.915 267.92 395.443 271.882 399.404C276.032 403.177 280.748 406.195 286.03 408.459C291.5 410.534 297.348 411.572 303.573 411.572C312.816 411.572 321.022 409.308 328.191 404.78C335.359 400.253 340.83 394.311 344.602 386.954C349.13 388.274 354.223 388.935 359.882 388.935ZM303.573 404.498C298.291 404.498 293.292 403.554 288.576 401.668C284.049 399.782 280.087 397.235 276.692 394.028C273.296 390.821 270.561 387.143 268.486 382.993C266.6 378.654 265.656 374.032 265.656 369.127C265.656 364.223 266.6 359.601 268.486 355.262C270.561 350.924 273.296 347.151 276.692 343.944C280.087 340.737 284.049 338.19 288.576 336.304C293.292 334.418 298.291 333.474 303.573 333.474C305.459 333.474 307.252 333.569 308.949 333.757C310.647 333.946 312.345 334.418 314.043 335.172C311.402 337.247 309.61 339.794 308.666 342.812C307.723 345.642 307.252 348.566 307.252 351.584C307.252 354.602 308.006 357.715 309.515 360.922C311.213 363.94 313.477 366.864 316.306 369.693C319.136 372.523 322.343 375.258 325.927 377.899C329.7 380.352 333.567 382.521 337.528 384.407C334.51 390.255 329.983 395.066 323.946 398.838C317.91 402.611 311.119 404.498 303.573 404.498ZM341.773 369.127C341.773 371.768 341.301 374.692 340.358 377.899C332.624 374.692 326.399 370.542 321.683 365.449C316.967 360.356 314.609 355.734 314.609 351.584C314.609 348.943 315.08 346.396 316.023 343.944C317.155 341.492 319.136 339.511 321.966 338.002C327.813 341.02 332.529 345.359 336.114 351.018C339.886 356.489 341.773 362.525 341.773 369.127ZM486.717 388.935C492.565 388.935 498.224 387.709 503.695 385.256C509.165 382.804 514.164 378.654 518.692 372.806C519.069 372.429 519.257 371.957 519.257 371.391C519.446 370.825 519.54 370.448 519.54 370.259C519.54 369.693 519.446 369.222 519.257 368.845C519.257 368.279 518.786 367.807 517.843 367.43L518.126 367.713C517.56 367.335 516.899 367.147 516.145 367.147C515.013 367.147 514.07 367.524 513.315 368.279C509.92 373.183 505.77 376.673 500.865 378.748C496.149 380.823 491.244 381.861 486.151 381.861C484.076 381.861 482.001 381.766 479.926 381.578C478.04 381.389 475.965 381.012 473.701 380.446C474.833 376.862 475.399 373.089 475.399 369.127C475.399 363.091 474.172 357.526 471.72 352.433C469.456 347.151 466.25 342.624 462.099 338.851C458.138 334.889 453.422 331.777 447.951 329.513C442.481 327.249 436.633 326.117 430.408 326.117C424.183 326.117 418.335 327.249 412.864 329.513C407.582 331.777 402.866 334.889 398.716 338.851C394.755 342.624 391.642 347.151 389.379 352.433C386.926 357.526 385.7 363.091 385.7 369.127C385.7 375.164 386.926 380.729 389.379 385.822C391.642 390.915 394.755 395.443 398.716 399.404C402.866 403.177 407.582 406.195 412.864 408.459C418.335 410.534 424.183 411.572 430.408 411.572C439.651 411.572 447.857 409.308 455.025 404.78C462.194 400.253 467.664 394.311 471.437 386.954C475.965 388.274 481.058 388.935 486.717 388.935ZM430.408 404.498C425.126 404.498 420.127 403.554 415.411 401.668C410.884 399.782 406.922 397.235 403.527 394.028C400.131 390.821 397.396 387.143 395.321 382.993C393.434 378.654 392.491 374.032 392.491 369.127C392.491 364.223 393.434 359.601 395.321 355.262C397.396 350.924 400.131 347.151 403.527 343.944C406.922 340.737 410.884 338.19 415.411 336.304C420.127 334.418 425.126 333.474 430.408 333.474C432.294 333.474 434.086 333.569 435.784 333.757C437.482 333.946 439.18 334.418 440.877 335.172C438.236 337.247 436.444 339.794 435.501 342.812C434.558 345.642 434.086 348.566 434.086 351.584C434.086 354.602 434.841 357.715 436.35 360.922C438.048 363.94 440.312 366.864 443.141 369.693C445.971 372.523 449.178 375.258 452.762 377.899C456.535 380.352 460.402 382.521 464.363 384.407C461.345 390.255 456.818 395.066 450.781 398.838C444.745 402.611 437.954 404.498 430.408 404.498ZM468.608 369.127C468.608 371.768 468.136 374.692 467.193 377.899C459.459 374.692 453.233 370.542 448.517 365.449C443.801 360.356 441.443 355.734 441.443 351.584C441.443 348.943 441.915 346.396 442.858 343.944C443.99 341.492 445.971 339.511 448.8 338.002C454.648 341.02 459.364 345.359 462.948 351.018C466.721 356.489 468.608 362.525 468.608 369.127ZM555.545 368.562H558.375H558.658C562.808 371.203 566.392 374.598 569.41 378.748C572.428 382.71 575.352 386.577 578.182 390.35C581.955 395.82 585.633 400.63 589.217 404.78C592.801 408.742 597.612 410.817 603.648 411.006H603.931C607.893 411.006 611.948 409.779 616.098 407.327C620.437 404.686 624.493 401.385 628.266 397.424C632.227 393.462 635.811 389.218 639.018 384.69C642.414 379.974 645.243 375.541 647.507 371.391V370.259C647.507 368.939 646.847 367.901 645.526 367.147L646.092 367.43C645.526 366.864 644.772 366.581 643.829 366.581C642.508 366.581 641.565 367.241 640.999 368.562C638.924 372.712 636.283 376.956 633.076 381.295C630.058 385.634 626.851 389.406 623.455 392.613C619.871 396.197 616.287 399.027 612.703 401.102C609.307 403.177 606.289 404.215 603.648 404.215C599.498 404.026 595.82 402.234 592.613 398.838C589.595 395.443 586.482 391.293 583.275 386.388C580.823 383.181 578.37 379.88 575.918 376.484C573.654 373.089 571.013 369.788 567.995 366.581C575.164 364.506 581.577 361.299 587.237 356.96C593.084 352.433 596.669 347.057 597.989 340.831V339.417C597.989 337.153 597.329 335.078 596.008 333.191C594.688 331.305 592.99 329.702 590.915 328.381C589.029 326.872 586.859 325.74 584.407 324.986C581.955 324.231 579.691 323.854 577.616 323.854C573.277 323.854 568.655 325.08 563.751 327.532C559.035 329.796 554.79 332.343 551.018 335.172C549.32 336.115 547.716 337.153 546.207 338.285C544.887 339.228 543.755 340.36 542.812 341.68V338.851L544.227 336.587C553.281 322.439 561.016 307.631 567.429 292.162C574.032 276.505 577.333 260.471 577.333 244.059C577.333 240.663 576.861 236.891 575.918 232.741C574.975 228.59 573.56 224.818 571.674 221.422C569.976 217.838 567.712 214.82 564.883 212.367C562.242 209.915 559.129 208.689 555.545 208.689C552.338 208.689 549.508 209.632 547.056 211.518C544.604 213.216 542.529 215.386 540.831 218.027C539.133 220.668 537.813 223.686 536.87 227.081C536.115 230.288 535.738 233.401 535.738 236.419V336.021L532.908 340.266C529.701 345.17 527.06 349.32 524.985 352.716C522.91 355.923 520.929 358.658 519.043 360.922C518.1 362.431 517.157 363.846 516.213 365.166C515.27 366.298 514.327 367.618 513.384 369.127C513.007 369.505 512.818 369.976 512.818 370.542C512.629 370.92 512.535 371.203 512.535 371.391C512.535 372.146 512.629 372.712 512.818 373.089C512.818 373.466 513.29 373.843 514.233 374.221C514.799 374.598 515.365 374.787 515.93 374.787C516.874 374.787 517.817 374.315 518.76 373.372C519.326 372.617 519.798 371.863 520.175 371.108C520.741 370.354 521.307 369.505 521.873 368.562C524.702 364.977 527.06 361.771 528.947 358.941C531.022 355.923 532.719 353.659 534.04 352.15H533.474L535.738 349.32V353.282V353.565V360.639V360.922V407.327C535.738 409.779 536.87 411.006 539.133 411.006C540.076 411.006 540.925 410.723 541.68 410.157C542.434 409.591 542.812 408.648 542.812 407.327V367.147C544.698 367.713 546.585 368.09 548.471 368.279C550.546 368.467 552.904 368.562 555.545 368.562ZM542.812 236.419C542.812 231.137 544.038 226.327 546.49 221.988C548.943 217.649 551.961 215.48 555.545 215.48C557.62 215.48 559.506 216.329 561.204 218.027C563.091 219.724 564.694 221.988 566.014 224.818C567.335 227.459 568.372 230.477 569.127 233.872C569.882 237.268 570.259 240.663 570.259 244.059C570.259 257.83 567.618 271.6 562.336 285.371C557.243 298.953 550.735 312.158 542.812 324.986V236.419ZM554.979 340.266C558.752 337.625 562.525 335.455 566.297 333.757C570.07 331.871 573.843 330.928 577.616 330.928C580.823 330.928 583.747 331.871 586.388 333.757C589.217 335.455 590.632 337.342 590.632 339.417V340.266C590.255 342.906 589.123 345.359 587.237 347.622C585.35 349.886 582.992 351.961 580.163 353.848C577.333 355.734 574.22 357.337 570.825 358.658C567.429 359.978 564.034 360.922 560.638 361.488C560.45 361.11 560.167 360.922 559.789 360.922C559.601 360.922 559.506 360.922 559.506 360.922C559.129 360.922 558.658 361.016 558.092 361.205C557.714 361.393 557.337 361.582 556.96 361.771H553.847C549.697 361.771 546.019 361.11 542.812 359.79V353.282C543.566 351.773 544.981 349.886 547.056 347.622C549.32 345.17 551.961 342.718 554.979 340.266Z" fill="#216468"/>
<path d="M382.108 108.919C382.108 126.758 378.459 159.149 369.65 187.011C365.244 200.949 359.601 213.576 352.607 222.67C345.622 231.753 337.526 237.03 328.153 237.03C318.779 237.03 310.684 231.753 303.699 222.67C296.705 213.576 291.062 200.949 286.655 187.011C277.847 159.149 274.198 126.758 274.198 108.919C274.198 73.8004 298.684 45.9738 328.153 45.9738C357.622 45.9738 382.108 73.8004 382.108 108.919Z" stroke="#655B5B" stroke-width="4.93202"/>
<path d="M376.093 85.2838C380.207 82.2756 383.557 78.5018 386.144 73.9625C388.731 69.4232 390.113 63.9321 390.289 57.4893C390.361 57.0298 390.251 56.601 389.96 56.2028C389.801 55.7077 389.674 55.3937 389.577 55.261C389.285 54.8629 388.976 54.5797 388.65 54.4113C388.359 54.0132 387.784 53.924 386.927 54.1438L387.271 54.1973C386.679 54.223 386.118 54.43 385.587 54.8181C384.79 55.4003 384.321 56.151 384.178 57.0699C384.313 62.267 383.188 66.8569 380.805 70.8397C378.555 74.7255 375.639 77.9784 372.056 80.5985C370.596 81.6659 369.087 82.667 367.531 83.6017C366.107 84.4394 364.453 85.2414 362.569 86.0078C361.522 82.9042 359.979 79.9589 357.941 77.1721C354.836 72.9255 351.111 69.6414 346.765 67.3199C342.456 64.7686 337.871 63.2333 333.01 62.7141C328.186 61.9651 323.267 62.2014 318.254 63.4231C313.241 64.6448 308.545 66.8568 304.166 70.0591C299.786 73.2614 296.255 77.0658 293.571 81.4725C291.019 85.7821 289.303 90.3977 288.421 95.3194C287.575 100.011 287.715 104.797 288.839 109.678C289.734 114.522 291.734 119.068 294.839 123.314C297.945 127.561 301.67 130.845 306.015 133.167C310.228 135.585 314.746 137.169 319.571 137.918C324.431 138.437 329.302 138.135 334.182 137.01C339.098 135.656 343.745 133.377 348.125 130.175C354.627 125.42 359.235 119.606 361.949 112.734C364.663 105.861 365.455 98.867 364.325 91.7506C368.189 90.3506 372.111 88.195 376.093 85.2838ZM344.486 125.198C340.77 127.916 336.768 129.824 332.48 130.922C328.325 131.924 324.228 132.171 320.189 131.661C316.151 131.152 312.334 129.971 308.74 128.119C305.181 126.037 302.14 123.271 299.617 119.821C297.094 116.371 295.38 112.634 294.475 108.612C293.703 104.492 293.686 100.431 294.425 96.4279C295.164 92.4252 296.641 88.5959 298.856 84.9398C301.203 81.1868 304.234 77.9517 307.95 75.2346C309.277 74.2642 310.587 73.4087 311.878 72.668C313.169 71.9274 314.606 71.3858 316.189 71.0433C315.398 73.8616 315.448 76.575 316.337 79.1835C317.129 81.6593 318.301 83.9588 319.854 86.0821C321.406 88.2054 323.538 90.0069 326.25 91.4866C328.997 92.7365 332.093 93.629 335.54 94.164C338.986 94.699 342.649 94.9735 346.529 94.9877C350.444 94.7721 354.281 94.3089 358.038 93.5981C358.923 99.2646 358.213 104.978 355.907 110.737C353.601 116.496 349.794 121.317 344.486 125.198ZM353.164 80.6655C354.522 82.5234 355.695 84.8229 356.681 87.5641C349.59 89.2868 343.076 89.5695 337.138 88.4125C331.201 87.2554 327.164 85.2171 325.029 82.2976C323.671 80.4397 322.693 78.4055 322.095 76.1952C321.629 73.8878 322.004 71.4754 323.218 68.9582C328.885 68.0733 334.434 68.6995 339.867 70.8369C345.335 72.7446 349.767 76.0208 353.164 80.6655Z" fill="#655B5B"/>
<path d="M307.366 102.898C311.203 106.656 313.939 106.656 317.23 102.898" stroke="#655B5B" stroke-width="4.92941"/>
<path d="M337.061 102.898C340.899 106.656 343.635 106.656 346.925 102.898" stroke="#655B5B" stroke-width="4.92941"/>
<path d="M360.992 116.105C343 163.147 314.461 147.437 283.61 175.024" stroke="#655B5B" stroke-width="4.92941"/>
</g>
<defs>
<clipPath id="clip0">
<rect width="686" height="454.51" fill="white" transform="translate(0 0.489746)"/>
</clipPath>
</defs>
</svg>
