<svg width="419" height="419" viewBox="0 0 419 419" fill="none" xmlns="http://www.w3.org/2000/svg">
<path fill-rule="evenodd" clip-rule="evenodd" d="M209.5 419C325.204 419 419 325.204 419 209.5C419 93.7963 325.204 0 209.5 0C93.7963 0 0 93.7963 0 209.5C0 325.204 93.7963 419 209.5 419ZM295.333 165.391C303.948 159.134 311.293 151.562 317.369 142.675C308.935 146.302 300.502 148.569 292.069 149.476C301.59 143.763 308.029 135.693 311.384 125.264C302.678 130.433 293.384 133.97 283.5 135.874C274.794 126.625 264.094 122 251.399 122C239.247 122 228.887 126.285 220.318 134.854C211.749 143.423 207.464 153.784 207.464 165.935C207.464 169.199 207.827 172.554 208.552 176C190.597 175.093 173.753 170.582 158.02 162.466C142.287 154.35 128.935 143.537 117.962 130.025C113.972 136.826 111.977 144.217 111.977 152.197C111.977 159.723 113.746 166.705 117.282 173.144C120.819 179.582 125.579 184.796 131.564 188.786C124.491 188.514 117.872 186.655 111.705 183.209V183.753C111.705 194.363 115.038 203.68 121.703 211.706C128.368 219.731 136.778 224.786 146.935 226.872C143.126 227.87 139.272 228.368 135.373 228.368C132.834 228.368 130.068 228.142 127.076 227.688C129.887 236.484 135.056 243.716 142.582 249.383C150.109 255.051 158.632 257.975 168.154 258.157C152.194 270.671 134.013 276.928 113.61 276.928C109.71 276.928 106.174 276.746 103 276.384C123.403 289.532 145.892 296.107 170.466 296.107C186.063 296.107 200.708 293.636 214.401 288.693C228.094 283.751 239.792 277.132 249.494 268.834C259.197 260.537 267.562 250.993 274.59 240.202C281.618 229.411 286.855 218.144 290.301 206.401C293.746 194.658 295.469 182.892 295.469 171.104C295.469 168.564 295.424 166.66 295.333 165.391Z" fill="#D97C65"/>
</svg>
